<svg width="1003" height="970" fill="none" xmlns="http://www.w3.org/2000/svg"><path fill-rule="evenodd" clip-rule="evenodd" d="M299 959.5c81 11.667 267.5 22.2 365.5-29 3.333-17.833 10.1-59.7 10.5-84.5 10.167 2.167 40.6-2.3 81-37.5 2.833-8.333 7.9-35.1 5.5-75.5 13.167 3 46.9 9.9 76.5 13.5-3.167-74-43.9-248.3-181.5-353.5l14-21c7.333 3.667 28.5 19.9 54.5 55.5-6-14.5-22.1-50.1-38.5-76.5 46-64.833 173.3-225.6 314.5-350-16.833 2.5-66.9 18.1-132.5 60.5s-176.667 175.667-224 237c-47.833-50-174.9-154-300.5-170-38.833-6.5-109.1-.3-79.5 76.5-15.5-1.667-54.8 2-88 30-41.5 35-61 73-63 93.5-1.6 16.4-2.333 35.167-2.5 42.5 1 4.667 5.2 16.5 14 26.5V455c.833 3.167 4.2 9.3 11 8.5 6.8-.8 13.833-2.667 16.5-3.5l9.5 12.5 17.5 1.5c3-5.333 11.2-16.3 20-17.5 2.833 2 8.5 6.5 8.5 8.5-.5 3.333-3.8 11.8-13 19l-2 1.5c1.5 2.833 6 9.7 12 14.5 2.5 2 3 11.5 2.5 12.5-.026.052-.54.387-1.496 1.009C188.517 524.896 23.334 632.461 2 860.5l-.5 2.5L65 841.5c-.167-10.5 3.6-34.4 20-46 .333 22.667 9.3 76 42.5 108 20-.333 76.6-7.1 143-31.5 3.667 14.833 12.9 49.2 20.5 68 7.6 18.8 8.5 20.833 8 19.5ZM619.5 332c-57.667-36.833-192.1-101.9-268.5-67.5 4.833 8.5 15.3 30.9 18.5 52.5 4 27 14.5 38 24 44 6.5-2.667 21.1-7.3 33.5-6.5 4 1.333 18.1 7.9 34.5 23.5 15.667-35.667 67.9-93.2 151.5-38l6.5-8Z" fill="#000"/><path d="m664.5 930.5.232.443.215-.112.044-.239-.491-.092Zm-365.5 29 .071-.495-.836-.12.297.791.468-.176ZM675 846l.104-.489-.594-.127-.01.608.5.008Zm81-37.5.328.377.102-.089.043-.127-.473-.161Zm5.5-75.5.111-.488-.65-.148.04.666.499-.03Zm76.5 13.5-.06.496.585.072-.025-.589-.5.021ZM656.5 393l-.416-.277-.26.39.372.284.304-.397Zm14-21 .224-.447-.395-.198-.245.368.416.277Zm54.5 55.5-.404.295.866-.486-.462.191ZM686.5 351l-.408-.289-.192.271.175.282.425-.264ZM1001 1l.33.375 1.27-1.118-1.67.248.07.495ZM644.5 298.5l-.361.346.402.42.355-.461-.396-.305ZM344 128.5l-.083.493.01.002.01.001.063-.496ZM264.5 205l-.053.497.814.088-.294-.765-.467.18Zm-88 30 .322.382-.322-.382Zm-63 93.5-.498-.049.498.049ZM111 371l-.5-.011-.001.058.012.058L111 371Zm14 26.5h.5v-.189l-.125-.141-.375.33Zm0 57.5h-.5v.065l.016.062L125 455Zm27.5 5 .398-.303-.212-.279-.335.105.149.477Zm9.5 12.5-.398.303.134.176.221.019.043-.498Zm17.5 1.5-.043.498.321.028.158-.281-.436-.245Zm20-17.5.288-.408-.16-.114-.196.027.068.495Zm8.5 8.5.494.074.006-.037V465h-.5Zm-13 19 .3.4.008-.006L195 484Zm-2 1.5-.3-.4-.342.256.2.378.442-.234Zm12 14.5.312-.39-.312.39Zm1.004 13.509-.273-.419.273.419ZM2 860.5l.49.098.005-.025.003-.026L2 860.5Zm-.5 2.5-.49-.098-.17.849.82-.277L1.5 863ZM65 841.5l.16.474.346-.117-.006-.365-.5.008Zm20-46 .5-.007-.014-.949-.775.548.289.408Zm42.5 108-.347.36.149.143.206-.003-.008-.5Zm143-31.5.485-.12-.134-.542-.523.193.172.469ZM351 264.5l-.205-.456-.501.226.271.477.435-.247ZM619.5 332l.388.315.353-.435-.472-.301-.269.421Zm-250-15 .495-.073-.495.073Zm24 44-.267.423.218.137.239-.097-.19-.463Zm33.5-6.5.158-.474-.061-.021-.065-.004-.032.499Zm34.5 23.5-.345.362.516.491.287-.652-.458-.201ZM613 340l-.276.417.378.25.286-.352L613 340Zm51.268 590.057c-48.895 25.545-119.926 35.71-188.91 38.018-68.967 2.308-135.812-3.24-176.287-9.07l-.142.99c40.525 5.837 107.43 11.389 176.463 9.08 69.016-2.309 140.235-12.477 189.34-38.132l-.464-.886Zm10.232-84.065c-.399 24.753-7.158 66.582-10.491 84.416l.982.184c3.334-17.833 10.108-59.737 10.509-84.584l-1-.016Zm81.172-37.869c-20.162 17.566-37.82 27.45-51.686 32.672-13.882 5.228-23.928 5.772-28.882 4.716l-.208.978c5.213 1.111 15.466.505 29.443-4.759 13.992-5.269 31.751-15.219 51.989-32.853l-.656-.754Zm5.329-75.093c2.397 40.358-2.668 67.055-5.474 75.309l.946.322c2.861-8.413 7.929-35.249 5.526-75.691l-.998.06Zm77.059 12.974c-29.576-3.597-63.291-10.494-76.449-13.492l-.222.976c13.176 3.002 46.927 9.906 76.551 13.508l.12-.992ZM656.196 393.397C793.635 498.474 834.337 672.604 837.5 746.521l1-.042c-3.171-74.083-43.935-248.553-181.696-353.876l-.608.794Zm13.888-21.674-14 21 .832.554 14-21-.832-.554Zm55.32 55.482c-26.022-35.629-47.245-51.934-54.68-55.652l-.448.894c7.232 3.616 28.342 19.777 54.32 55.348l.808-.59Zm-39.329-75.941c16.379 26.366 32.467 61.938 38.463 76.427l.924-.382c-6.004-14.511-22.116-50.139-38.537-76.573l-.85.528ZM1000.67.624C859.431 125.059 732.106 285.859 686.092 350.712l.816.578c45.986-64.813 173.261-225.547 314.422-349.914l-.66-.75ZM868.771 61.92C934.333 19.545 984.332 3.98 1001.07 1.495l-.14-.99c-16.929 2.514-67.063 18.15-132.701 60.575l.542.84ZM644.896 298.805c23.66-30.658 63.252-79.297 105.125-125.57 41.885-46.285 86.012-90.155 118.75-111.315l-.542-.84c-32.862 21.24-77.068 65.203-118.95 111.485-41.893 46.294-81.502 94.954-105.175 125.63l.792.61ZM343.937 128.996c62.696 7.987 125.79 37.944 179.206 72.175 53.411 34.228 97.105 72.702 120.996 97.675l.722-.692c-23.943-25.027-67.698-63.553-121.179-97.825-53.476-34.269-116.715-64.312-179.619-72.325l-.126.992Zm-78.97 75.824c-7.378-19.142-8.505-33.816-5.511-44.957 2.991-11.126 10.11-18.797 19.373-23.913 18.572-10.255 45.708-10.201 65.088-6.957l.166-.986c-19.454-3.256-46.867-3.352-65.737 7.068-9.457 5.222-16.782 13.095-19.855 24.528-3.069 11.418-1.88 26.319 5.542 45.577l.934-.36Zm-88.145 30.562c33.076-27.895 72.231-31.54 87.625-29.885l.106-.994c-15.606-1.678-55.051 2.01-88.375 30.115l.644.764Zm-62.824 93.167c.989-10.145 6.323-24.694 16.613-41.096 10.284-16.392 25.499-34.603 46.211-52.071l-.644-.764c-20.788 17.532-36.073 35.821-46.414 52.304-10.335 16.473-15.751 31.174-16.762 41.529l.996.098Zm-2.498 42.462c.166-7.326.899-26.079 2.498-42.462l-.996-.098c-1.601 16.417-2.335 35.197-2.502 42.538l1 .022Zm13.875 26.159c-8.733-9.925-12.901-21.676-13.886-26.275l-.978.21c1.015 4.734 5.247 16.65 14.114 26.725l.75-.66ZM125.5 455v-57.5h-1V455h1Zm10.442 8.003c-3.218.379-5.613-.875-7.323-2.616-1.723-1.755-2.736-3.997-3.135-5.514l-.968.254c.435 1.65 1.521 4.058 3.39 5.961 1.882 1.917 4.57 3.33 8.152 2.909l-.116-.994Zm16.409-3.48c-2.647.827-9.649 2.685-16.409 3.48l.116.994c6.84-.805 13.905-2.68 16.591-3.52l-.298-.954Zm10.047 12.674-9.5-12.5-.796.606 9.5 12.5.796-.606Zm17.145 1.305-17.5-1.5-.086.996 17.5 1.5.086-.996Zm19.889-17.497c-4.565.622-8.913 3.76-12.462 7.343-3.561 3.595-6.387 7.707-7.906 10.407l.872.49c1.481-2.634 4.255-6.671 7.744-10.193 3.501-3.534 7.653-6.479 11.888-7.057l-.136-.99ZM208.5 465c0-.36-.125-.73-.303-1.082a6.827 6.827 0 0 0-.733-1.117c-.6-.765-1.419-1.599-2.313-2.419-1.792-1.644-3.934-3.282-5.363-4.29l-.576.816c1.405.992 3.512 2.604 5.262 4.21.877.805 1.651 1.596 2.203 2.3.275.352.487.671.627.95.144.284.196.492.196.632h1Zm-13.192 19.394c9.296-7.276 12.667-15.855 13.186-19.32l-.988-.148c-.481 3.201-3.71 11.556-12.814 18.68l.616.788ZM193.3 485.9l2-1.5-.6-.8-2 1.5.6.8Zm12.012 13.71c-5.93-4.744-10.39-11.549-11.87-14.344l-.884.468c1.52 2.872 6.06 9.8 12.13 14.656l.624-.78Zm2.635 13.114a1.6 1.6 0 0 0 .126-.416 4.81 4.81 0 0 0 .064-.51c.031-.38.043-.858.035-1.399a32.899 32.899 0 0 0-.302-3.842c-.189-1.392-.476-2.831-.879-4.057-.396-1.203-.933-2.294-1.679-2.89l-.624.78c.504.404.967 1.251 1.353 2.422.377 1.149.653 2.523.839 3.881.184 1.355.277 2.679.292 3.721.008.521-.004.965-.032 1.303-.013.17-.031.306-.05.409-.021.111-.038.152-.037.15l.894.448Zm-1.67 1.204c.476-.31.847-.552 1.102-.722.126-.084.229-.155.304-.209a2.001 2.001 0 0 0 .161-.131c.01-.011.063-.063.103-.142l-.894-.448a.477.477 0 0 1 .095-.127l-.052.038a7.912 7.912 0 0 1-.273.188c-.248.166-.613.403-1.092.715l.546.838ZM2.497 860.547c21.313-227.8 186.323-335.251 203.78-346.619l-.546-.838C188.215 524.497 22.859 632.175 1.502 860.453l.996.094Zm-.507 2.551.5-2.5-.98-.196-.5 2.5.98.196Zm62.85-22.072-63.5 21.5.32.948 63.5-21.5-.32-.948Zm19.871-45.934c-8.317 5.882-13.407 14.865-16.397 23.66-2.99 8.796-3.898 17.453-3.814 22.756l1-.016c-.083-5.197.81-13.74 3.76-22.419 2.952-8.68 7.946-17.447 16.029-23.165l-.578-.816Zm43.136 108.048c-16.52-15.922-27.027-37.171-33.446-57.292-6.418-20.119-8.735-39.07-8.901-50.355l-1 .014c.167 11.382 2.5 30.431 8.949 50.645 6.448 20.213 17.024 41.63 33.704 57.708l.694-.72Zm142.481-31.609C203.977 895.913 147.432 902.668 127.492 903l.016 1c20.06-.334 76.715-7.113 143.164-31.531l-.344-.938Zm21.136 68.282c-7.586-18.764-16.812-53.099-20.479-67.933l-.97.24c3.666 14.832 12.907 49.231 20.521 68.067l.928-.374Zm7.068 19.863c.069.184.094.259.093.256a.42.42 0 0 1-.012-.101c0-.018 0-.054.009-.099a.5.5 0 0 1 .773-.317c.067.046.105.098.11.104a.435.435 0 0 1 .035.053l.001.001-.001-.002-.004-.007a.696.696 0 0 1-.012-.025l-.038-.084c-.129-.289-.429-.999-.986-2.346-1.112-2.69-3.236-7.897-7.036-17.296l-.928.374c3.8 9.401 5.926 14.61 7.039 17.304.556 1.344.862 2.068.998 2.373.033.073.062.135.083.176l.027.047c.006.009.016.025.031.044.007.009.047.062.115.109a.503.503 0 0 0 .775-.319c.009-.045.009-.082.009-.101-.001-.064-.014-.116-.015-.12a4.644 4.644 0 0 0-.13-.376l-.936.352Zm52.673-694.72c38.017-17.118 90.564-9.509 140.914 7.056 50.319 16.556 98.306 42.01 127.112 60.409l.538-.842c-28.861-18.435-76.924-43.93-127.338-60.517-50.384-16.576-103.253-24.301-141.636-7.018l.41.912Zm18.79 51.971c-3.213-21.684-13.71-44.144-18.56-52.674l-.87.494c4.817 8.47 15.253 30.81 18.44 52.326l.99-.146Zm23.772 43.65c-4.699-2.967-9.64-7.167-13.906-13.968-4.268-6.804-7.874-16.235-9.866-29.682l-.99.146c2.008 13.553 5.652 23.122 10.009 30.068 4.359 6.949 9.418 11.249 14.219 14.282l.534-.846Zm33.265-6.576c-12.514-.807-27.198 3.86-33.722 6.536l.38.926c6.476-2.657 20.992-7.257 33.278-6.464l.064-.998Zm34.813 23.637c-16.447-15.645-30.609-22.253-34.687-23.612l-.316.948c3.922 1.308 17.96 7.833 34.313 23.388l.69-.724Zm151.431-38.055c-41.923-27.681-76.066-27.137-101.713-15.111-25.607 12.008-42.654 35.418-50.521 53.327l.916.402c7.8-17.758 24.703-40.947 50.029-52.823 25.286-11.857 59.06-12.48 100.737 15.039l.552-.834Zm5.836-7.898-6.5 8 .776.63 6.5-8-.776-.63Z" fill="#000"/><path d="M293 820c6.4-37.2 29.333-75.833 40-90.5-59.6 4.8-111.5 18.333-130 24.5-38 48.8-14.5 83 2 94 58.8-10.4 83.167-23 88-28Z" fill="#ED1941"/><path d="M151.5 795.5c8.4-16.4 20.833-26.167 26-29-5.6 7.6-11 23.5-13 30.5-.833 3.833-3.9 13.7-9.5 22.5-11.6 18.8-14.167 48.167-14 60.5-20.8-17.6-29-62.333-30.5-82.5 4.8 11.2 16.333 25 21.5 30.5-2.5-14 2-67 16.5-81.5 20.4-20.4 52.167-21.167 65.5-19-19.5 5.5-45 21.5-53 31.5-6.4 8-9 27.667-9.5 36.5ZM106 746.5c-31.6 5.2-58.5 26.167-68 36 6.5-17.5 15-44 36.5-88.5s80-121 101-138.5c16.8-14 46-13.833 58.5-12l-25 28c-19.6-4.4-40.167 6.5-48 12.5 14.4-3.6 31.333-.833 38 1l-29.5 39.5c-18.4 0-38 6.667-45.5 10 18.8 2 29.5 6.833 32.5 9l-21 36c-30.4.4-42.667 9.833-45 14.5 19.2-1.6 31 3.667 34.5 6.5-1.6 2-13.333 31.5-19 46Z" fill="#ED1941"/><path d="M293 820c6.4-37.2 29.333-75.833 40-90.5-59.6 4.8-111.5 18.333-130 24.5-38 48.8-14.5 83 2 94 58.8-10.4 83.167-23 88-28Z" stroke="#000"/><path d="M151.5 795.5c8.4-16.4 20.833-26.167 26-29-5.6 7.6-11 23.5-13 30.5-.833 3.833-3.9 13.7-9.5 22.5-11.6 18.8-14.167 48.167-14 60.5-20.8-17.6-29-62.333-30.5-82.5 4.8 11.2 16.333 25 21.5 30.5-2.5-14 2-67 16.5-81.5 20.4-20.4 52.167-21.167 65.5-19-19.5 5.5-45 21.5-53 31.5-6.4 8-9 27.667-9.5 36.5ZM106 746.5c-31.6 5.2-58.5 26.167-68 36 6.5-17.5 15-44 36.5-88.5s80-121 101-138.5c16.8-14 46-13.833 58.5-12l-25 28c-19.6-4.4-40.167 6.5-48 12.5 14.4-3.6 31.333-.833 38 1l-29.5 39.5c-18.4 0-38 6.667-45.5 10 18.8 2 29.5 6.833 32.5 9l-21 36c-30.4.4-42.667 9.833-45 14.5 19.2-1.6 31 3.667 34.5 6.5-1.6 2-13.333 31.5-19 46Z" stroke="#000"/><path d="m486 482.5 23 16.5-37.5 66c7.2-20.4 6.667-42.833 5.5-51.5-4.667 18.5-27.1 59.2-79.5 74-52.4 14.8-85.167-4.167-95-15.5-26.8 26.8-34.5 91.833-35 121-9.5-39-2-78 2-95s21.5-59.5 32.5-50c16.8 16 40.667 22.667 50.5 24 81.5 9.5 114.5-78.5 119-86 3.6-6 11.167-4.833 14.5-3.5Z" fill="#ED1941"/><path d="M468 458c-.4 6.8-13.5 31.167-20 42.5 8-64.4-3.333-106.5-10-119.5 19 9 30.5 68.5 30 77ZM538 454c-12.8.4-23.667 6.167-27.5 9L493 446c9.6-42.4 60-52 84-51.5-.4 1.2-26.167 40.167-39 59.5Z" fill="#ED1941"/><path d="M591 374c-63.6-4.4-96.833 28.833-105.5 46-4-2-18-47.5 26-73 35.2-20.4 76.333-2.167 92.5 9.5L591 374ZM643 409.5 610 454c38 0 72.833 21.333 85.5 32-33.6-15.2-79.667-14.667-98.5-12.5L570.5 516c72.8-17.2 142.667 22.167 168.5 44-65.2-38.8-141.833-28.833-172-19 2 3.2 15.167 32.667 21.5 47 83.6-25.6 159.833 21 187.5 47.5-81.6-42.4-153.333-33.667-179-24 2.8 3.6 8.5 23.167 11 32.5 86.4.8 168.667 38.333 199 57-12.8-142.8-114.667-253.833-164-291.5ZM577 626.5c3.2 12-8.667 23.333-15 27.5-6.8-34-16.833-54.833-21-61 0 33.2-8.333 61.5-12.5 71.5 5-36.5-3.5-71-3-81.5.4-8.4 13.5-23.167 20-29.5 5.5 3 27.5 58 31.5 73ZM628.5 807c2 3.6.833 15.5 0 21-25.6-45.2-57-59.5-69.5-61 7.5 37.5-15 48.5-18 49.5s-37 .5-46.5-1c-7.6-1.2-14.833 2.5-17.5 4.5v-25c13.2-10.8 52.5-36.833 70.5-48.5 36 7 78.5 56 81 60.5ZM701 807c-.4 1.2-12.167 4.833-18 6.5 2.4-17.2-1-29.167-3-33-9.2-18.8-30.833-27.833-40.5-30 2.8 18-3.167 29.833-6.5 33.5-18-31.2-54.833-49.333-71-54.5l4-5c45.6-4 95 15.667 114 26-4.5-14.5-10.5-30-45.5-57-28-21.6-54-7-63.5 3-3.2-20.8 10.667-32 18-35 1.6 1.6 10 6 14 8 70.5-1 98 13 106.5 17 6.8 3.2 10.5 15 11.5 20.5-13.6-7.6-24.333-4.833-28-2.5 36 48.5 8.5 101 8 102.5Z" fill="#ED1941"/><path d="m486 482.5 23 16.5-37.5 66c7.2-20.4 6.667-42.833 5.5-51.5-4.667 18.5-27.1 59.2-79.5 74-52.4 14.8-85.167-4.167-95-15.5-26.8 26.8-34.5 91.833-35 121-9.5-39-2-78 2-95s21.5-59.5 32.5-50c16.8 16 40.667 22.667 50.5 24 81.5 9.5 114.5-78.5 119-86 3.6-6 11.167-4.833 14.5-3.5Z" stroke="#ED1941"/><path d="M468 458c-.4 6.8-13.5 31.167-20 42.5 8-64.4-3.333-106.5-10-119.5 19 9 30.5 68.5 30 77ZM538 454c-12.8.4-23.667 6.167-27.5 9L493 446c9.6-42.4 60-52 84-51.5-.4 1.2-26.167 40.167-39 59.5Z" stroke="#ED1941"/><path d="M591 374c-63.6-4.4-96.833 28.833-105.5 46-4-2-18-47.5 26-73 35.2-20.4 76.333-2.167 92.5 9.5L591 374ZM643 409.5 610 454c38 0 72.833 21.333 85.5 32-33.6-15.2-79.667-14.667-98.5-12.5L570.5 516c72.8-17.2 142.667 22.167 168.5 44-65.2-38.8-141.833-28.833-172-19 2 3.2 15.167 32.667 21.5 47 83.6-25.6 159.833 21 187.5 47.5-81.6-42.4-153.333-33.667-179-24 2.8 3.6 8.5 23.167 11 32.5 86.4.8 168.667 38.333 199 57-12.8-142.8-114.667-253.833-164-291.5ZM577 626.5c3.2 12-8.667 23.333-15 27.5-6.8-34-16.833-54.833-21-61 0 33.2-8.333 61.5-12.5 71.5 5-36.5-3.5-71-3-81.5.4-8.4 13.5-23.167 20-29.5 5.5 3 27.5 58 31.5 73ZM628.5 807c2 3.6.833 15.5 0 21-25.6-45.2-57-59.5-69.5-61 7.5 37.5-15 48.5-18 49.5s-37 .5-46.5-1c-7.6-1.2-14.833 2.5-17.5 4.5v-25c13.2-10.8 52.5-36.833 70.5-48.5 36 7 78.5 56 81 60.5ZM701 807c-.4 1.2-12.167 4.833-18 6.5 2.4-17.2-1-29.167-3-33-9.2-18.8-30.833-27.833-40.5-30 2.8 18-3.167 29.833-6.5 33.5-18-31.2-54.833-49.333-71-54.5l4-5c45.6-4 95 15.667 114 26-4.5-14.5-10.5-30-45.5-57-28-21.6-54-7-63.5 3-3.2-20.8 10.667-32 18-35 1.6 1.6 10 6 14 8 70.5-1 98 13 106.5 17 6.8 3.2 10.5 15 11.5 20.5-13.6-7.6-24.333-4.833-28-2.5 36 48.5 8.5 101 8 102.5Z" stroke="#ED1941"/><path d="M368 779.5c-4.4-64.8 29.5-102.667 47-113.5 12.8 13.2 39.333 27.5 51 33 3.2 5.6 1.333 16 0 20.5-30.8-7.6-49.5-22.5-55-29 6.8 27.2 31.167 40.333 42.5 43.5l-9.5 16c-32.8-8-46.667-25.667-49.5-33.5 4.8 28.8 28 44.667 39 49-.4 1.2-5.5 7.833-8 11-32.8-6-45-23.5-47-31.5-2.4 16.8 24 37.333 37.5 45.5l-4 6c-17.2-1.2-36.5-11.833-44-17Z" fill="#D2BF73" stroke="#000"/><path d="M362 903.5c32-35.2 39.333-72 39-86l-49-18c-4 1.6-9 13.667-11 19.5 23.2 20.8 43 24 50 23-27.2 11.2-49.333-2-57-10l-5 10c12.4 13.2 33.5 22.5 42.5 25.5-26 2.8-43.167-8.167-48.5-14l-3 7.5c10 12 28.833 19.333 37 21.5-18.576 2.4-36.073-6-42.5-10.5l-5.5 13.5c14.8 12.4 41.5 17.167 53 18Z" fill="#D2BF74" stroke="#000"/><path d="M465.5 618c7.6 4.4 16.5 11.833 20 15L548 525l58-89.5 49.5-70 77.5-102 72-85c19-20.667 62.5-67.3 84.5-88.5 22-21.2 52.833-51.167 65.5-63.5-49 23.5-92 58-123.5 84C806.3 131.3 746 196.833 719 227l-65 85.5-64.5 94c-15.167 23.333-48.4 74.7-60 93.5-11.6 18.8-47.5 86.5-64 118Z" fill="#fff" stroke="#000"/><path d="M476.5 638.5c-26.671-18.951-54.5-24-66-23-9.2.8-10.167 8.333-9.5 12 .333-.5 1.3-1.6 2.5-2 4-1.6 12 0 15.5 1 75 20 86 63 87 63s4.5-3.5 5.5-10.5-16-27-35-40.5Z" fill="#C4C4C4" stroke="#000"/><path d="M334.5 238.5c-15.6-20-42.167-30-53.5-32.5 0-3.5 3.5-16.5 10-16.5 41.6 1.2 46.667 33.5 44 49.5l-.5-.5Z" fill="#D2BF73"/><path d="M183 436c-4 2.4-8.667 11.667-10.5 16-.667-.5-2.2-1.8-3-3-1-1.5-3-5-3-6.5 0-1.2 3.333-3.833 5-5-.167-.167-1.4-.4-5 0-4.5.5-19 9.5-20.5 10-1.2.4-1.5-3.167-1.5-5 0-17.5-.6-53.1-3-55.5-2.4-2.4-7.333-9-9.5-12-2.667-6.333-6-24.1 2-44.5s39.667-42.833 54.5-51.5c-11.6 13.2-17.167 31.167-18.5 38.5 2 3.2 2.5 7.667 2.5 9.5 38.8-14.4 74.5 24.333 87.5 45.5.8-5.2.333-10.167 0-12-12-37.5 19.5-48 35-23 26 41.2 6.167 54.833-7 56.5 24.8 10 34.333-13.5 36-26.5 13.5 1 32 4 44 6 9.6 1.6 28 22 36 32 29.6 47.2 7 103.667-8 126 3.5-27 3.5-55-1.5-78.5-4-18.8-23-36.167-32-42.5 8 13.2 18 89.167 22 125.5-7.333 1.333-23.6 3.9-30 3.5-8-.5-11-5.5-16.5-13.5-4.4-6.4-16.833-15-22.5-18.5L321 466c17.2 13.2 29.5 32.167 33.5 40-16.5-56.5-31.5-77.5-36-81.5-3.6-3.2-23.833-15.667-33.5-21.5 13.6 10.4 13.333 28 11.5 35.5l-45 78.5H225c-1.2-18.4-8.5-28.667-12-31.5 6.4-9.2 7.667-19.5 7.5-23.5 8 4.4 15 17.5 17.5 23.5 1-25.5-2-33.5-2.5-35S219 426 196 425.5c-18.4-.4-30.333-6.167-34-9 7.2 10 17 17.167 21 19.5Z" fill="#D2BF73" stroke="#000"/><path d="M268.5 345c1.6-14 12.333-8.167 17.5-3.5-7.6-1.6-8.167 5.667-7.5 9.5 2.8-.4 6.167.833 7.5 1.5-8-2-7.333 15.5-6 24.5-4.5-4.833-13.1-18-11.5-32Z" fill="#000"/><path d="M141 377c10.4-36 33.667-35.333 44-30.5-15.6.8-23.833 17-26 25 14.4-7.6 30-2.5 36 1-1.167-.167-4.3-.4-7.5 0-4 .5-17.5 19-29 17-9.2-1.6-15.5-9-17.5-12.5ZM215 407.5c9.667 6.333 30.8 22.4 38 36 3.667-12.333 1.2-36.8-38-36Z" fill="#000" stroke="#000"/></svg>
